<svg xmlns="http://www.w3.org/2000/svg" viewBox="0 0 774.06 311.03"><defs><style>.cls-1{fill:#fff;}</style></defs><title>Asset 4</title><g id="Layer_2" data-name="Layer 2"><g id="Layer_1-2" data-name="Layer 1"><path class="cls-1" d="M489.14,49.68a6.86,6.86,0,0,0,5.68.88,19,19,0,0,0,12.49-8.38q4.28-6.61,3-12.73a8.69,8.69,0,0,0-10.37-6.37A15.84,15.84,0,0,0,488.64,32q-3.64,7.28-2.37,13.2A7.16,7.16,0,0,0,489.14,49.68Z"/><path class="cls-1" d="M376.68,160.26q1.51,7.06,5.92,10.33a12.48,12.48,0,0,0,10.51,1.93q9.36-2,20.16-13.62a149.77,149.77,0,0,0,20.21-28.22,18,18,0,0,0,13.41,1.92,29.06,29.06,0,0,0,12.41-6.29c-.93,7-1,12.91,0,17.61.9,4.2,2.6,7.34,5.11,9.39a10,10,0,0,0,8.92,2q13.43-2.9,31-30.82c0,.06,0,.13,0,.18q2.26,10.5,10.09,15.32t19.48,2.31q16.82-3.6,31-19.75a157.1,157.1,0,0,0,10.13-12.93,36.75,36.75,0,0,0,.62,8.47,16.5,16.5,0,0,0,5.15,9.45q3.87,3.36,9.58,2.17,13.7-2.86,28.61-34.15a41.34,41.34,0,0,0,.54,11.2q1.59,7.6,6.38,11.07t11.64,2q13.13-2.73,28.41-23.19a175.37,175.37,0,0,0,24.22-44.75q8.92-24.29,6.11-37.79-1.67-8-7.87-11.56A17.73,17.73,0,0,0,675.59.39q-4.19.87-3.71,3.15a4.3,4.3,0,0,0,1.6,2,4.86,4.86,0,0,1,1.76,2.71q2,9.71-2.61,30.82a202.52,202.52,0,0,1-12.75,39.27q-8.13,18.18-14.78,19.56c-2.16.45-3.47-.47-4-2.75q-1.35-6.46,3-23.35A153.39,153.39,0,0,1,655,41.6a2.89,2.89,0,0,0,.21-1.83c-.42-2-2.15-4-5.17-5.77s-5.68-2.49-8-2S636.64,36.5,633,44a151.22,151.22,0,0,0-9.56,26A203.79,203.79,0,0,1,610,95.33q-6.87,10.88-9.72,11.46c-1.27.26-2.08-.49-2.46-2.27Q596.6,98.45,601.6,81a166.07,166.07,0,0,1,11.94-30.78,2.37,2.37,0,0,0,.21-1.83q-.59-2.85-5.34-5.63t-8.36-2q-3.62.75-10.32,15.25a185.19,185.19,0,0,0-10.44,29.48,117.78,117.78,0,0,1-18.14,24.58q-11.48,11.67-22.37,14-10.12,2.18-12.13-7.19a33.27,33.27,0,0,1-.45-9.5,24.27,24.27,0,0,0,9.54-.25q13.95-3,24.58-16.77t8-25.81A17.7,17.7,0,0,0,560,52.65q-6.67-4.07-15.46-2.18-12,2.58-22.57,15.84A86.32,86.32,0,0,0,506.6,96.09a82.29,82.29,0,0,0-2.29,10.36c-3.39,5.68-6.68,10.74-9.85,15q-7.27,9.86-10.71,10.59c-1.28.27-2.11-.48-2.49-2.27q-1.31-6.11,3.62-23.65a167.24,167.24,0,0,1,11.82-31,2.43,2.43,0,0,0,.4-1.87q-.5-2.3-5.63-5.29c-3.43-2-6.36-2.73-8.77-2.22q-3.26.7-9.87,15a172.15,172.15,0,0,0-9.54,26.89c-3.85,6-8.82,9.73-15,11.06q-4.77,1-8-.89,13.05-27.57,10.6-39-1.51-7.06-7.25-5.83-8,1.71-15.39,15.79t-4.38,28a14.39,14.39,0,0,0,.77,2.63,137.7,137.7,0,0,1-12.68,21c-4.26,5.64-7.71,8.76-10.39,9.33-1.66.36-2.69-.43-3.1-2.33q-1.44-6.69,2.62-23.65A154.58,154.58,0,0,1,411.5,93.43a2.09,2.09,0,0,0,.24-1.65c-.44-2-2.32-4-5.64-5.78s-6.25-2.46-8.8-1.91q-3.44.73-9.31,14.79a172.16,172.16,0,0,0-8.53,27.25,148.59,148.59,0,0,1-15.21,23.21q-8.31,10.18-13.28,11.25c-1.78.38-2.85-.25-3.2-1.91q-1.23-5.73,4.77-21.51a318.08,318.08,0,0,1,14.32-32,2.69,2.69,0,0,0,.59-1.92q-.52-2.48-3.65-5.81t-5.4-2.84q-5.83,4.45-16.73,6.79a50.79,50.79,0,0,1-7.77,1.07q2.1-8.85,1.16-13.24c-.76-3.56-3-5-6.69-4.16q-7.26,1.56-12.7,9.72T312,111.2a11,11,0,0,0,5.24,7.67A141.78,141.78,0,0,1,308,140.23h0a120.87,120.87,0,0,1-20.45,28.57q-11.47,11.67-22.37,14-10.12,2.17-12.13-7.18a33.36,33.36,0,0,1-.45-9.51,24.45,24.45,0,0,0,9.54-.24q13.95-3,24.58-16.77t8.05-25.81a17.72,17.72,0,0,0-8.35-11.9q-6.68-4.06-15.46-2.18-12,2.58-22.57,15.84A86.28,86.28,0,0,0,233,154.84a80.52,80.52,0,0,0-2.21,9.78A126.48,126.48,0,0,1,218.17,181q-10.62,11.56-16.34,12.8c-2.68.58-4.36-.73-5-3.91q-2.74-12.79,12.52-52.45,16.26-4.29,19.12-5.91a10.8,10.8,0,0,0,4.28-4.71q1.77-3.39,1.28-5.68c-.27-1.27-1.11-1.75-2.51-1.45l-16.62,3.56q7.45-17.39,12.19-24.2a1.89,1.89,0,0,0,.44-1.69c-.39-1.78-2.2-3.53-5.43-5.23s-6.18-2.27-8.86-1.7q-1.9.42-8,11.52A254.06,254.06,0,0,0,193,127.75l-16,3.45c-.51.1-1,1-1.32,2.68a11.56,11.56,0,0,0,0,5q1.35,6.3,8.81,4.7l2.67-.57a.54.54,0,0,1-.11.42,259.9,259.9,0,0,1-11.56,25.27A275.84,275.84,0,0,1,160.79,193q-6.78,9.85-9.26,10.39c-1.28.27-2.11-.48-2.49-2.27q-1.39-6.5,2.14-21.24A137.25,137.25,0,0,1,161.07,152a3,3,0,0,0,.72-3.15c-.62-2.93-2.86-5.59-6.7-7.95a16.56,16.56,0,0,0-12.64-2.09q-6.1,1.32-19.86,22.45A427.49,427.49,0,0,0,98,204.32q5.55-27.16,15.69-46.94a2,2,0,0,0,.4-1.88q-.61-2.87-5.22-5.68c-3.07-1.86-5.87-2.53-8.42-2q-3.44.74-9.75,16c-.29.69-.54,1.42-.82,2.11-2.5,5.7-9.19,20.69-13.83,28.75l0,0a141.14,141.14,0,0,1-23.15,30.86c.26-.68.53-1.31.77-2Q58.38,210,63,193.36t8.06-31.31q3.44-14.72,7.48-27.49t7.74-17.94q7.4-3.78,6.85-6.27-.45-2.1-4.37-4.55a10.4,10.4,0,0,0-7.94-1.6q-5.16,1.11-11.38,11.23-36.4,8.23-54.3,21.66T.5,165.62a16.59,16.59,0,0,0,8,11.27q6.42,3.83,11.19,2.79,3.45-.74,2.26-3.48a24.24,24.24,0,0,1,1.32-14.77A37.58,37.58,0,0,1,33,148.14a107.13,107.13,0,0,1,13.7-10.63,161.36,161.36,0,0,1,16.33-9.11Q58.33,139,51,159.58T38.33,194.77A168,168,0,0,1,26,221.69Q19,234,12.67,235.35A6.48,6.48,0,0,1,8,234.77a5,5,0,0,0-3.19-.92q-4,.87-2.7,7,1.56,7.26,8.75,13.31a18.44,18.44,0,0,0,16.55,4c4.72-1,9.14-4.31,13.31-9.66v.19l3.52-3h0l1.08-.9q20.41-17.06,32.54-35.89c-1,6.46-1.15,11.62-.39,15.19Q79,231.38,83,234.81c2.68,2.29,5.37,3.14,8,2.57a5.7,5.7,0,0,0,4.68-5.2q2.5-9.74,18.4-37.63T141,153.32a174.65,174.65,0,0,0-11.44,32.33q-4.92,18.94-2.63,29.65,1.32,6.12,5.29,9.25a10.26,10.26,0,0,0,8.94,2.08Q148,225.16,156,216a125.31,125.31,0,0,0,13.76-18.74c2.17-3.65,4.54-7.84,7.06-12.47-1,7.77-1.11,14.12-.11,18.78q3.15,14.7,16.72,11.79,10.89-2.34,24.6-18.07a193.8,193.8,0,0,0,12.42-16c.11.68.13,1.4.27,2.05q2.27,10.51,10.09,15.32T260.33,201q16.82-3.6,31-19.75A163.41,163.41,0,0,0,315.46,145q6.57-12.21,11.77-24.31a42.88,42.88,0,0,0,4.85-.64,38.17,38.17,0,0,0,12.54-4.9q-23.81,39.9-20,57.47a16,16,0,0,0,5.26,9.16q4,3.44,10,2.16,10.69-2.29,23.68-18.17,6.45-7.89,12.46-16.91A46.48,46.48,0,0,0,376.68,160.26ZM537,73.48q7.28-13.16,12.62-14.3c1.4-.3,2.28.38,2.63,2q1.61,7.44-6,22.06t-17.68,16.79l-1.53.33A91,91,0,0,1,537,73.48ZM263.44,132.22q7.28-13.15,12.62-14.3c1.4-.3,2.28.38,2.63,2q1.6,7.45-5.95,22.06T255.06,158.8l-1.53.33A91.05,91.05,0,0,1,263.44,132.22Z"/><path class="cls-1" d="M773.16,148.22q-1.78-8.35-6.45-12a12.79,12.79,0,0,0-11.12-2.29q-8.37,1.8-16.19,11.63T720.51,176q7.65-22.7,12.81-32,1.42-1.69-1.65-4a14.2,14.2,0,0,0-12.12-2.76q-3.81.81-13.54,26.75-4.12,11-7.87,22.73c-5.09,7.38-10.44,12-16.07,13.81q5.52-16.87,2.78-29.61a25.15,25.15,0,0,0-7.72-13.74q-5.93-5.39-14.47-3.55A23.16,23.16,0,0,0,650.71,160l-.19,0q-8.55,1.84-17.8,13.36a84.35,84.35,0,0,0-14.36,27.53,74.49,74.49,0,0,0-2.6,10.79q-4.72,7.86-9.19,13.89-7.23,9.81-10.65,10.54-2.48.53-3-2.13-1.59-7.41,6.28-34.14A319.68,319.68,0,0,1,617,152.63q31.55-12.88,54.87-23.79Q695,118.07,711.6,108.55t25-16.24q8.43-6.74,11.76-11.54t2.09-7.48q-1.43-3-6.83-3.55a18.17,18.17,0,0,0-9.46,1.41,5.39,5.39,0,0,0-3,2.54q-19.54,25.4-71.43,49.65c-11.12,5.19-22.9,10.15-35.25,14.88a2.49,2.49,0,0,0,0-1c-.41-1.9-2.2-3.76-5.37-5.6s-6.1-2.47-8.76-1.9q-3.61.78-9.25,11.53l-3.25,6.59c-7.76,2.73-15.48,5.42-19,6.58l0,0q-19.73,6.42-56.8,17.72t-61.73,19.56a398.3,398.3,0,0,0-41.27,16,146.34,146.34,0,0,0-26.61,15.58q-10.67,8.12-14.65,14.63a38.6,38.6,0,0,0-5.05,11.3q-1.06,4.8.27,7.66,1.79,3.81,5.85,1.91a6.68,6.68,0,0,0,2.7-2.19q11.16-11.49,50.17-29.72,13.91-6.51,33-14.36t30-12.28q10.95-4.43,39.7-15.42,26.87-10.28,34.11-13.11l.08-.06,22.68-8.86a389.72,389.72,0,0,0-14.3,44q-7.83,29.7-5.38,41.09,1.35,6.27,5.09,9.34a10,10,0,0,0,8.87,2q13.17-2.83,30.34-29.95c0,.12,0,.25.06.37q2.25,10.44,9.1,15t16.53,2.51q10.44-2.24,19.47-11.13a80.18,80.18,0,0,0,15.28-21.37,13.14,13.14,0,0,0,2.51-.34,30.91,30.91,0,0,0,13-6.56c-1.09,3.92-2.16,7.88-3.19,11.91-2.32,9.06-5.61,25-8.38,40.28h0v0s-2.84,16.53-3.32,19.84c-.16,1-.28,1.89-.4,2.65-1.18,8.18-1.8,14.33-1.4,16.2a14.52,14.52,0,0,0,6.84,9.66q5.5,3.39,9.87,2.46t2.59-5.53c-.27-2.91.75-11.32,2.38-22,.13-.87.29-1.91.49-3.2l3.9-22.79.06-.18c2.71-14.82,5.68-29.62,7.84-39q6.33,14.74,19.26,12,11.58-2.47,23.38-16.94a104,104,0,0,0,18-33.08Q776,161.52,773.16,148.22ZM645.7,228.42q-6.66,1.43-8.4-6.74-3-13.87,6.89-35.46l.16.76a39.92,39.92,0,0,0,6.69,15,31.74,31.74,0,0,0,11.66,10.32Q655,226.43,645.7,228.42Zm22.5-28.48a27.92,27.92,0,0,1-10.75-8.42,28.52,28.52,0,0,1-5.92-11.85,16.13,16.13,0,0,1-.39-5.48,36.2,36.2,0,0,1,7.06-7.87q10.86-2.13,13.15,8.5Q673.46,184.71,668.2,199.94Zm81-26.92a133.86,133.86,0,0,1-13.86,28q-8.44,12.94-14.91,14.33a5.86,5.86,0,0,1-4.75-.87,6.11,6.11,0,0,1-2.63-3.9q.76-10.31,15.51-36t21.21-27.11c1.64-.35,2.74.74,3.28,3.27Q754.57,157.95,749.16,173Z"/></g></g></svg>