<svg width="14" height="18" viewBox="0 0 14 18" fill="none" xmlns="http://www.w3.org/2000/svg">
<path d="M13 7.66663C13 12.3333 7 16.3333 7 16.3333C7 16.3333 1 12.3333 1 7.66663C1 6.07533 1.63214 4.5492 2.75736 3.42398C3.88258 2.29877 5.4087 1.66663 7 1.66663C8.5913 1.66663 10.1174 2.29877 11.2426 3.42398C12.3679 4.5492 13 6.07533 13 7.66663Z" stroke="#141F31" stroke-width="1.5" stroke-linecap="round" stroke-linejoin="round"/>
<path d="M7 9.66663C8.10457 9.66663 9 8.7712 9 7.66663C9 6.56206 8.10457 5.66663 7 5.66663C5.89543 5.66663 5 6.56206 5 7.66663C5 8.7712 5.89543 9.66663 7 9.66663Z" stroke="#141F31" stroke-width="1.5" stroke-linecap="round" stroke-linejoin="round"/>
</svg>
