<svg width="14" height="14" viewBox="0 0 14 14" fill="none" xmlns="http://www.w3.org/2000/svg">
<path d="M8.4186 3.29357C8.97865 3.40283 9.49336 3.67674 9.89684 4.08022C10.3003 4.4837 10.5742 4.99841 10.6835 5.55846M8.4186 1C9.58217 1.12926 10.6672 1.65033 11.4956 2.47763C12.3239 3.30494 12.8463 4.38932 12.9771 5.55273M12.4037 10.1284V11.8486C12.4043 12.0083 12.3716 12.1663 12.3076 12.3126C12.2437 12.459 12.1498 12.5903 12.0322 12.6983C11.9145 12.8062 11.7756 12.8884 11.6243 12.9396C11.473 12.9907 11.3127 13.0097 11.1537 12.9953C9.38926 12.8036 7.69441 12.2007 6.20531 11.235C4.8199 10.3547 3.64531 9.1801 2.76497 7.79469C1.79592 6.29883 1.19287 4.59573 1.00465 2.82338C0.990325 2.66482 1.00917 2.50501 1.05999 2.35413C1.1108 2.20326 1.19248 2.06461 1.29982 1.94703C1.40715 1.82944 1.5378 1.73549 1.68343 1.67117C1.82906 1.60684 1.9865 1.57354 2.1457 1.57339H3.86588C4.14415 1.57065 4.41392 1.66919 4.62491 1.85064C4.8359 2.0321 4.97371 2.28408 5.01266 2.55962C5.08526 3.11012 5.21991 3.65063 5.41403 4.17085C5.49118 4.37608 5.50788 4.59913 5.46214 4.81356C5.41641 5.02799 5.31017 5.22481 5.15601 5.38071L4.4278 6.10892C5.24405 7.54443 6.43264 8.73301 7.86815 9.54926L8.59635 8.82106C8.75225 8.66689 8.94908 8.56065 9.16351 8.51492C9.37794 8.46919 9.60098 8.48588 9.80621 8.56303C10.3264 8.75715 10.8669 8.8918 11.4174 8.9644C11.696 9.0037 11.9504 9.14399 12.1322 9.35861C12.314 9.57322 12.4106 9.84718 12.4037 10.1284Z" stroke="#A9A9CA" stroke-width="1.5" stroke-linecap="round" stroke-linejoin="round"/>
</svg>
