<svg width="13" height="13" viewBox="0 0 13 13" fill="none" xmlns="http://www.w3.org/2000/svg">
<path d="M4.3335 10.2083L6.50016 12.375L8.66683 10.2083" stroke="#5B5CEE" stroke-linecap="round" stroke-linejoin="round"/>
<path d="M6.5 7.5V12.375" stroke="#5B5CEE" stroke-linecap="round" stroke-linejoin="round"/>
<path d="M11.3098 10.7987C11.7807 10.4676 12.1339 9.99499 12.318 9.44953C12.5021 8.90407 12.5077 8.31413 12.3338 7.76532C12.1599 7.2165 11.8157 6.73738 11.351 6.39746C10.8864 6.05755 10.3255 5.87454 9.74981 5.87499H9.06731C8.9044 5.24009 8.59958 4.65042 8.17579 4.15037C7.75201 3.65032 7.22031 3.25293 6.62072 2.9881C6.02112 2.72328 5.36927 2.59793 4.71422 2.62148C4.05917 2.64504 3.41801 2.81689 2.83899 3.1241C2.25997 3.43131 1.75818 3.86587 1.37141 4.39507C0.984643 4.92427 0.722964 5.53431 0.606077 6.17928C0.489191 6.82424 0.520142 7.48732 0.6966 8.11859C0.873059 8.74986 1.19043 9.33288 1.62481 9.82374" stroke="#5B5CEE" stroke-linecap="round" stroke-linejoin="round"/>
</svg>
