<svg width="17" height="15" viewBox="0 0 17 15" fill="none" xmlns="http://www.w3.org/2000/svg">
<path d="M0.293427 6.93543L4.12129 8.36411L5.60291 13.129C5.69771 13.4342 6.07088 13.547 6.31858 13.3444L8.45229 11.605C8.67595 11.4228 8.99452 11.4137 9.22826 11.5833L13.0767 14.3774C13.3417 14.57 13.7171 14.4248 13.7835 14.1046L16.6027 0.543754C16.6753 0.194005 16.3316 -0.0977669 15.9986 0.0310358L0.288941 6.09135C-0.0987403 6.24086 -0.0953624 6.78974 0.293427 6.93543ZM5.36413 7.60359L12.8452 2.99599C12.9797 2.91342 13.118 3.09522 13.0025 3.20232L6.82847 8.9414C6.61146 9.14341 6.47147 9.41375 6.43182 9.70718L6.2215 11.2658C6.19365 11.4739 5.90132 11.4945 5.8439 11.2931L5.03504 8.451C4.94239 8.12683 5.0774 7.78057 5.36413 7.60359Z" fill="#9090AB"/>
</svg>
