<svg width="17" height="17" viewBox="0 0 17 17" fill="none" xmlns="http://www.w3.org/2000/svg">
<path d="M16.6084 16.6125V16.6119H16.6125V10.5192C16.6125 7.53866 15.9709 5.24268 12.4864 5.24268C10.8113 5.24268 9.68717 6.1619 9.22825 7.03337H9.17979V5.52094H5.87598V16.6119H9.31615V11.12C9.31615 9.67406 9.59026 8.27584 11.381 8.27584C13.1453 8.27584 13.1716 9.92602 13.1716 11.2128V16.6125H16.6084Z" fill="#9090AB"/>
<path d="M0.274414 5.52161H3.71874V16.6125H0.274414V5.52161Z" fill="#9090AB"/>
<path d="M1.99489 0C0.893615 0 0 0.893616 0 1.99489C0 3.09616 0.893615 4.00846 1.99489 4.00846C3.09616 4.00846 3.98977 3.09616 3.98977 1.99489C3.98908 0.893616 3.09547 0 1.99489 0V0Z" fill="#9090AB"/>
</svg>
