<svg xmlns="http://www.w3.org/2000/svg">
<symbol id="google" viewBox="0 0 14 15"><path d="M14 7.837c0-.44-.041-.88-.123-1.307a.41.41 0 0 0-.403-.333H7.027a.41.41 0 0 0-.41.41v2.46c0 .228.184.411.41.411h3.308c-.206.417-.49.78-.824 1.084l2.319 2.318A6.948 6.948 0 0 0 14 7.837zM7 4.119c.805 0 1.57.255 2.214.739a.41.41 0 0 0 .536-.038l1.75-1.75a.41.41 0 0 0-.026-.605A6.977 6.977 0 0 0 7.001.837a6.971 6.971 0 0 0-5.78 3.075L3.63 6.32a3.692 3.692 0 0 1 3.372-2.201zM7 14.838a6.927 6.927 0 0 0 4.173-1.4l-2.361-2.362a3.68 3.68 0 0 1-1.811.48 3.693 3.693 0 0 1-3.372-2.2l-2.407 2.407A6.971 6.971 0 0 0 7 14.838zM3.341 8.428a3.663 3.663 0 0 1-.06-.59c0-.203.029-.398.06-.591L.767 4.673A6.922 6.922 0 0 0 0 7.837c0 1.14.28 2.214.767 3.165l2.574-2.574z"/></symbol>
<symbol id="linkedin" viewBox="0 0 15 15"><path d="M14.996 15H15V9.497c0-2.691-.58-4.764-3.726-4.764-1.512 0-2.527.83-2.941 1.617h-.044V4.985H5.306v10.014h3.106v-4.958c0-1.306.247-2.568 1.864-2.568 1.593 0 1.617 1.49 1.617 2.651V15h3.103zM.248 4.986h3.11V15H.248V4.986zM1.801 0C.807 0 0 .807 0 1.801 0 2.796.807 3.62 1.801 3.62c.995 0 1.801-.823 1.801-1.818C3.602.807 2.795 0 1.802 0z"/></symbol>
<symbol id="more-info_gray" viewBox="0 0 24 24"><path d="M9 5l7 7-7 7" stroke="#9090AB" stroke-width="1.5" stroke-linecap="round" stroke-linejoin="round"/></symbol>
<symbol id="notice" viewBox="0 0 20 22"><path d="M16 7A6 6 0 1 0 4 7c0 7-3 9-3 9h18s-3-2-3-9zM11.73 20a1.999 1.999 0 0 1-3.46 0" stroke="#fff" stroke-width="2" stroke-linecap="round" stroke-linejoin="round"/></symbol>
<symbol id="notice_active" viewBox="0 0 22 24"><path d="M16 9A6 6 0 1 0 4 9c0 7-3 9-3 9h18s-3-2-3-9zM11.73 22a1.999 1.999 0 0 1-3.46 0" stroke="#fff" stroke-width="2" stroke-linecap="round" stroke-linejoin="round"/><circle cx="16.5" cy="5.5" r="4.5" fill="#FC3665" stroke="#141F31" stroke-width="2"/></symbol>
<symbol id="sm-github" viewBox="0 0 13 12"><path d="M6.822.8c-3.315 0-6 2.571-6 5.742 0 2.538 1.719 4.69 4.103 5.448.3.054.41-.123.41-.276 0-.136-.005-.498-.008-.976-1.669.346-2.021-.77-2.021-.77-.273-.663-.667-.84-.667-.84-.544-.357.042-.35.042-.35.602.04.919.592.919.592.535.878 1.404.625 1.747.478.054-.371.209-.624.38-.768-1.332-.144-2.733-.637-2.733-2.837 0-.627.233-1.14.618-1.541-.068-.145-.27-.729.052-1.52 0 0 .503-.154 1.65.589.48-.128.99-.191 1.5-.194.51.003 1.02.066 1.5.194 1.14-.743 1.643-.589 1.643-.589.322.791.12 1.375.06 1.52.382.402.615.914.615 1.54 0 2.207-1.403 2.692-2.738 2.833.21.173.405.525.405 1.063 0 .768-.007 1.386-.007 1.572 0 .15.105.33.412.273 2.4-.754 4.118-2.907 4.118-5.44 0-3.172-2.686-5.743-6-5.743z"/></symbol>
<symbol id="sm-linkedin" viewBox="0 0 12 12"><path d="M11.586 11.294h.003V7.152c0-2.027-.437-3.588-2.806-3.588-1.138 0-1.903.625-2.215 1.218h-.033V3.754H4.29v7.54h2.34V7.56c0-.983.186-1.934 1.403-1.934 1.2 0 1.217 1.122 1.217 1.997v3.671h2.337zM.48 3.754h2.342v7.54H.481v-7.54zM1.65 0C.903 0 .295.608.295 1.356c0 .749.608 1.37 1.357 1.37.748 0 1.356-.621 1.356-1.37C3.007.608 2.399 0 1.65 0z"/></symbol>
<symbol id="sm-skype" viewBox="0 0 12 12"><path d="M11.425 6.59c-.004.02-.01-.018 0 0 .057-.318.088-.644.088-.97a5.342 5.342 0 0 0-1.554-3.78A5.28 5.28 0 0 0 5.202.372 3.125 3.125 0 0 0 3.729 0C2.89 0 2.102.33 1.51.927A3.182 3.182 0 0 0 .984 4.7a5.343 5.343 0 0 0 1.474 4.702 5.273 5.273 0 0 0 4.68 1.483 3.118 3.118 0 0 0 3.764-.516 3.185 3.185 0 0 0 .522-3.778zM6.23 8.895c-1.885 0-2.728-.934-2.728-1.634 0-.358.263-.61.626-.61.806 0 .597 1.167 2.102 1.167.77 0 1.195-.422 1.195-.853 0-.26-.127-.547-.634-.673L5.115 5.87C3.765 5.53 3.52 4.794 3.52 4.102c0-1.435 1.341-1.974 2.6-1.974 1.16 0 2.528.646 2.528 1.507 0 .37-.317.584-.68.584-.687 0-.56-.96-1.947-.96-.688 0-1.07.314-1.07.763 0 .448.544.592 1.016.7L7.207 5c1.36.305 1.704 1.104 1.704 1.858 0 1.166-.888 2.037-2.681 2.037z"/></symbol>
<symbol id="sm-telegram" viewBox="0 0 12 11"><path d="M.2 5.515l2.602.972 1.007 3.24a.306.306 0 0 0 .487.146l1.45-1.183a.433.433 0 0 1 .528-.015l2.616 1.9c.18.13.436.032.481-.186l1.917-9.22a.307.307 0 0 0-.411-.348L.197 4.941a.307.307 0 0 0 .002.574zm3.447.455l5.086-3.133c.091-.056.186.067.107.14L4.642 6.88a.87.87 0 0 0-.27.52L4.23 8.46c-.02.142-.218.156-.257.019l-.55-1.932a.512.512 0 0 1 .224-.576z"/></symbol>
<symbol id="star" viewBox="0 0 16 16"><path d="M7.642 2.333l1.95 3.95 4.36.637-3.155 3.073.744 4.34-3.899-2.05-3.899 2.05.745-4.34L1.333 6.92l4.36-.637 1.95-3.95z" stroke="#5B5CEE" stroke-width="1.5" stroke-linecap="round" stroke-linejoin="round"/></symbol>
<symbol id="star_filled" viewBox="0 0 15 15"><path d="M7.31 1.333l1.949 3.95 4.36.637-3.155 3.073.744 4.34-3.899-2.05-3.899 2.05.745-4.34L1 5.92l4.36-.637 1.95-3.95z" fill="#5B5CEE" stroke="#5B5CEE" stroke-width="1.5" stroke-linecap="round" stroke-linejoin="round"/></symbol>
</svg>