<svg xmlns="http://www.w3.org/2000/svg">
<symbol id="camera" viewBox="0 0 27 14"><path d="M20.356 4.395L26.113.24c.504-.406.887-.314.887.433v12.669c0 .838-.476.746-.887.433l-5.757-4.156V4.395zM0 .71v9.435c.01 2.137 1.773 3.86 3.938 3.851h13.951c.392 0 .71-.313.719-.7V3.85C18.598 1.714 16.835-.009 14.67 0H.719A.727.727 0 0 0 0 .71z"/></symbol>
<symbol id="e-globe" viewBox="0 0 20 20"><path d="M10 18.333a8.333 8.333 0 1 0 0-16.666 8.333 8.333 0 0 0 0 16.666zM1.667 10h16.667"/><path d="M10 1.667A12.75 12.75 0 0 1 13.334 10 12.75 12.75 0 0 1 10 18.333 12.75 12.75 0 0 1 6.667 10 12.75 12.75 0 0 1 10 1.667z"/></symbol>
<symbol id="e-lock" viewBox="0 0 20 20"><path d="M15.833 9.167H4.167c-.92 0-1.667.746-1.667 1.666v5.834c0 .92.746 1.666 1.667 1.666h11.666c.92 0 1.667-.746 1.667-1.666v-5.834c0-.92-.746-1.666-1.667-1.666zM5.833 9.167V5.833a4.167 4.167 0 1 1 8.333 0v3.334"/></symbol>
<symbol id="e-mail" viewBox="0 0 20 20"><path d="M3.334 3.333h13.333c.917 0 1.667.75 1.667 1.667v10c0 .917-.75 1.667-1.667 1.667H3.334c-.917 0-1.667-.75-1.667-1.667V5c0-.917.75-1.667 1.667-1.667z"/><path d="M18.334 5L10 10.833 1.667 5"/></symbol>
<symbol id="e-trash" viewBox="0 0 20 20"><path d="M2.5 5h15M6.667 5V3.333a1.667 1.667 0 0 1 1.667-1.666h3.333a1.667 1.667 0 0 1 1.667 1.666V5m2.5 0v11.667a1.667 1.667 0 0 1-1.667 1.666H5.834a1.667 1.667 0 0 1-1.667-1.666V5h11.667zM8.333 9.167v5M11.667 9.167v5"/></symbol>
<symbol id="google" viewBox="0 0 14 15"><path d="M14 7.837c0-.44-.041-.88-.123-1.307a.41.41 0 0 0-.403-.333H7.027a.41.41 0 0 0-.41.41v2.46c0 .228.184.411.41.411h3.308c-.206.417-.49.78-.824 1.084l2.319 2.318A6.948 6.948 0 0 0 14 7.837zM7 4.119c.805 0 1.57.255 2.214.739a.41.41 0 0 0 .536-.038l1.75-1.75a.41.41 0 0 0-.026-.605A6.977 6.977 0 0 0 7.001.837a6.971 6.971 0 0 0-5.78 3.075L3.63 6.32a3.692 3.692 0 0 1 3.372-2.201zM7 14.838a6.927 6.927 0 0 0 4.173-1.4l-2.361-2.362a3.68 3.68 0 0 1-1.811.48 3.693 3.693 0 0 1-3.372-2.2l-2.407 2.407A6.971 6.971 0 0 0 7 14.838zM3.341 8.428a3.663 3.663 0 0 1-.06-.59c0-.203.029-.398.06-.591L.767 4.673A6.922 6.922 0 0 0 0 7.837c0 1.14.28 2.214.767 3.165l2.574-2.574z"/></symbol>
<symbol id="linkedin" viewBox="0 0 15 15"><path d="M14.996 15H15V9.497c0-2.691-.58-4.764-3.726-4.764-1.512 0-2.527.83-2.941 1.617h-.044V4.985H5.306v10.014h3.106v-4.958c0-1.306.247-2.568 1.864-2.568 1.593 0 1.617 1.49 1.617 2.651V15h3.103zM.248 4.986h3.11V15H.248V4.986zM1.801 0C.807 0 0 .807 0 1.801 0 2.796.807 3.62 1.801 3.62c.995 0 1.801-.823 1.801-1.818C3.602.807 2.795 0 1.802 0z"/></symbol>
<symbol id="more-info_gray" viewBox="0 0 24 24"><path d="M9 5l7 7-7 7" stroke="#9090AB" stroke-width="1.5" stroke-linecap="round" stroke-linejoin="round"/></symbol>
<symbol id="notice" viewBox="0 0 20 22"><path d="M16 7A6 6 0 1 0 4 7c0 7-3 9-3 9h18s-3-2-3-9zM11.73 20a1.999 1.999 0 0 1-3.46 0" stroke="#fff" stroke-width="2" stroke-linecap="round" stroke-linejoin="round"/></symbol>
<symbol id="notice_active" viewBox="0 0 22 24"><path d="M16 9A6 6 0 1 0 4 9c0 7-3 9-3 9h18s-3-2-3-9zM11.73 22a1.999 1.999 0 0 1-3.46 0" stroke="#fff" stroke-width="2" stroke-linecap="round" stroke-linejoin="round"/><circle cx="16.5" cy="5.5" r="4.5" fill="#FC3665" stroke="#141F31" stroke-width="2"/></symbol>
<symbol id="sm-github" viewBox="0 0 13 12"><path d="M6.822.8c-3.315 0-6 2.571-6 5.742 0 2.538 1.719 4.69 4.103 5.448.3.054.41-.123.41-.276 0-.136-.005-.498-.008-.976-1.669.346-2.021-.77-2.021-.77-.273-.663-.667-.84-.667-.84-.544-.357.042-.35.042-.35.602.04.919.592.919.592.535.878 1.404.625 1.747.478.054-.371.209-.624.38-.768-1.332-.144-2.733-.637-2.733-2.837 0-.627.233-1.14.618-1.541-.068-.145-.27-.729.052-1.52 0 0 .503-.154 1.65.589.48-.128.99-.191 1.5-.194.51.003 1.02.066 1.5.194 1.14-.743 1.643-.589 1.643-.589.322.791.12 1.375.06 1.52.382.402.615.914.615 1.54 0 2.207-1.403 2.692-2.738 2.833.21.173.405.525.405 1.063 0 .768-.007 1.386-.007 1.572 0 .15.105.33.412.273 2.4-.754 4.118-2.907 4.118-5.44 0-3.172-2.686-5.743-6-5.743z"/></symbol>
<symbol id="sm-linkedin" viewBox="0 0 12 12"><path d="M11.586 11.294h.003V7.152c0-2.027-.437-3.588-2.806-3.588-1.138 0-1.903.625-2.215 1.218h-.033V3.754H4.29v7.54h2.34V7.56c0-.983.186-1.934 1.403-1.934 1.2 0 1.217 1.122 1.217 1.997v3.671h2.337zM.48 3.754h2.342v7.54H.481v-7.54zM1.65 0C.903 0 .295.608.295 1.356c0 .749.608 1.37 1.357 1.37.748 0 1.356-.621 1.356-1.37C3.007.608 2.399 0 1.65 0z"/></symbol>
<symbol id="sm-skype" viewBox="0 0 12 12"><path d="M11.425 6.59c-.004.02-.01-.018 0 0 .057-.318.088-.644.088-.97a5.342 5.342 0 0 0-1.554-3.78A5.28 5.28 0 0 0 5.202.372 3.125 3.125 0 0 0 3.729 0C2.89 0 2.102.33 1.51.927A3.182 3.182 0 0 0 .984 4.7a5.343 5.343 0 0 0 1.474 4.702 5.273 5.273 0 0 0 4.68 1.483 3.118 3.118 0 0 0 3.764-.516 3.185 3.185 0 0 0 .522-3.778zM6.23 8.895c-1.885 0-2.728-.934-2.728-1.634 0-.358.263-.61.626-.61.806 0 .597 1.167 2.102 1.167.77 0 1.195-.422 1.195-.853 0-.26-.127-.547-.634-.673L5.115 5.87C3.765 5.53 3.52 4.794 3.52 4.102c0-1.435 1.341-1.974 2.6-1.974 1.16 0 2.528.646 2.528 1.507 0 .37-.317.584-.68.584-.687 0-.56-.96-1.947-.96-.688 0-1.07.314-1.07.763 0 .448.544.592 1.016.7L7.207 5c1.36.305 1.704 1.104 1.704 1.858 0 1.166-.888 2.037-2.681 2.037z"/></symbol>
<symbol id="sm-telegram" viewBox="0 0 12 11"><path d="M.2 5.515l2.602.972 1.007 3.24a.306.306 0 0 0 .487.146l1.45-1.183a.433.433 0 0 1 .528-.015l2.616 1.9c.18.13.436.032.481-.186l1.917-9.22a.307.307 0 0 0-.411-.348L.197 4.941a.307.307 0 0 0 .002.574zm3.447.455l5.086-3.133c.091-.056.186.067.107.14L4.642 6.88a.87.87 0 0 0-.27.52L4.23 8.46c-.02.142-.218.156-.257.019l-.55-1.932a.512.512 0 0 1 .224-.576z"/></symbol>
<symbol id="star" viewBox="0 0 16 16"><path d="M7.642 2.333l1.95 3.95 4.36.637-3.155 3.073.744 4.34-3.899-2.05-3.899 2.05.745-4.34L1.333 6.92l4.36-.637 1.95-3.95z" stroke="#5B5CEE" stroke-width="1.5" stroke-linecap="round" stroke-linejoin="round"/></symbol>
<symbol id="star_filled" viewBox="0 0 15 15"><path d="M7.31 1.333l1.949 3.95 4.36.637-3.155 3.073.744 4.34-3.899-2.05-3.899 2.05.745-4.34L1 5.92l4.36-.637 1.95-3.95z" fill="#5B5CEE" stroke="#5B5CEE" stroke-width="1.5" stroke-linecap="round" stroke-linejoin="round"/></symbol>
<symbol id="zoom" viewBox="0 0 61 14"><path d="M19.764.007h-.007a6.809 6.809 0 0 0-6.808 6.809 6.81 6.81 0 0 0 6.808 6.815 6.81 6.81 0 0 0 6.816-6.808A6.81 6.81 0 0 0 19.764.007zm2.88 9.703a4.092 4.092 0 0 1-5.781-.007 4.096 4.096 0 0 1 0-5.775 4.085 4.085 0 0 1 5.781-.007l.007.007a4.079 4.079 0 0 1-.007 5.782z"/><path d="M11.584 10.945l-.682-.036H4.769l8.18-8.18-.036-.682A2.065 2.065 0 0 0 10.902.036L10.22 0H0l.036.682c.05 1.085.92 1.96 2.01 2.011l.683.036h6.133l-8.18 8.18.036.682a2.086 2.086 0 0 0 2.011 2.011l.682.036h10.22l-.036-.682c-.093-1.128-.89-1.946-2.01-2.011zM55.2.007a5.454 5.454 0 0 0-4.087 1.846A5.448 5.448 0 0 0 43.974.94C43.45.345 42.258.007 41.575.007v13.631l.683-.036c1.134-.072 1.967-.876 2.01-2.01l.036-.683V6.14l.036-.682c0-.474.122-.94.338-1.364a2.72 2.72 0 0 1 4.711 0h-.007c.223.423.337.89.337 1.364l.036.682v4.77l.036.681a2.09 2.09 0 0 0 2.004 2.011l.682.036V6.14l.036-.682c0-.481.115-.948.338-1.372a2.723 2.723 0 0 1 3.727-.983c.41.237.754.581.991.99.216.424.33.891.33 1.365l.036.682v4.77l.036.681a2.084 2.084 0 0 0 2.004 2.011l.682.036v-8.18A5.463 5.463 0 0 0 55.2.008zM38.89 2.004a6.81 6.81 0 0 0-9.639 0c-2.657 2.664-2.657 6.98.008 9.638 2.664 2.657 6.98 2.657 9.638-.008 2.664-2.657 2.657-6.973-.008-9.63zM36.957 9.71a4.092 4.092 0 0 1-5.782-.007 4.096 4.096 0 0 1 0-5.775 4.085 4.085 0 0 1 5.782-.007l.007.007a4.079 4.079 0 0 1-.008 5.782z"/></symbol>
</svg>