<svg xmlns="http://www.w3.org/2000/svg">
<symbol id="google" viewBox="0 0 14 15"><path d="M14 7.837c0-.44-.041-.88-.123-1.307a.41.41 0 0 0-.403-.333H7.027a.41.41 0 0 0-.41.41v2.46c0 .228.184.411.41.411h3.308c-.206.417-.49.78-.824 1.084l2.319 2.318A6.948 6.948 0 0 0 14 7.837zM7 4.119c.805 0 1.57.255 2.214.739a.41.41 0 0 0 .536-.038l1.75-1.75a.41.41 0 0 0-.026-.605A6.977 6.977 0 0 0 7.001.837a6.971 6.971 0 0 0-5.78 3.075L3.63 6.32a3.692 3.692 0 0 1 3.372-2.201zM7 14.838a6.927 6.927 0 0 0 4.173-1.4l-2.361-2.362a3.68 3.68 0 0 1-1.811.48 3.693 3.693 0 0 1-3.372-2.2l-2.407 2.407A6.971 6.971 0 0 0 7 14.838zM3.341 8.428a3.663 3.663 0 0 1-.06-.59c0-.203.029-.398.06-.591L.767 4.673A6.922 6.922 0 0 0 0 7.837c0 1.14.28 2.214.767 3.165l2.574-2.574z"/></symbol>
<symbol id="linkedin" viewBox="0 0 15 15"><path d="M14.996 15H15V9.497c0-2.691-.58-4.764-3.726-4.764-1.512 0-2.527.83-2.941 1.617h-.044V4.985H5.306v10.014h3.106v-4.958c0-1.306.247-2.568 1.864-2.568 1.593 0 1.617 1.49 1.617 2.651V15h3.103zM.248 4.986h3.11V15H.248V4.986zM1.801 0C.807 0 0 .807 0 1.801 0 2.796.807 3.62 1.801 3.62c.995 0 1.801-.823 1.801-1.818C3.602.807 2.795 0 1.802 0z"/></symbol>
<symbol id="notice" viewBox="0 0 20 22"><path d="M16 7A6 6 0 1 0 4 7c0 7-3 9-3 9h18s-3-2-3-9zM11.73 20a1.999 1.999 0 0 1-3.46 0" stroke="#fff" stroke-width="2" stroke-linecap="round" stroke-linejoin="round"/></symbol>
<symbol id="notice_active" viewBox="0 0 22 24"><path d="M16 9A6 6 0 1 0 4 9c0 7-3 9-3 9h18s-3-2-3-9zM11.73 22a1.999 1.999 0 0 1-3.46 0" stroke="#fff" stroke-width="2" stroke-linecap="round" stroke-linejoin="round"/><circle cx="16.5" cy="5.5" r="4.5" fill="#FC3665" stroke="#141F31" stroke-width="2"/></symbol>
<symbol id="verticalburger" viewBox="0 0 24 24"><path d="M12 13a1 1 0 1 0 0-2 1 1 0 0 0 0 2zM12 6a1 1 0 1 0 0-2 1 1 0 0 0 0 2zM12 20a1 1 0 1 0 0-2 1 1 0 0 0 0 2z" stroke="#fff" stroke-width="2" stroke-linecap="round" stroke-linejoin="round"/></symbol>
<symbol id="verticalburger_black" viewBox="0 0 24 24"><path d="M12 13a1 1 0 1 0 0-2 1 1 0 0 0 0 2zM12 6a1 1 0 1 0 0-2 1 1 0 0 0 0 2zM12 20a1 1 0 1 0 0-2 1 1 0 0 0 0 2z" stroke="#141F31" stroke-width="2" stroke-linecap="round" stroke-linejoin="round"/></symbol>
</svg>