<svg width="20" height="20" viewBox="0 0 20 20" xmlns="http://www.w3.org/2000/svg">
<path d="M15.8333 9.16666H4.16667C3.24619 9.16666 2.5 9.91285 2.5 10.8333V16.6667C2.5 17.5871 3.24619 18.3333 4.16667 18.3333H15.8333C16.7538 18.3333 17.5 17.5871 17.5 16.6667V10.8333C17.5 9.91285 16.7538 9.16666 15.8333 9.16666Z" stroke-width="2" stroke-linecap="round" stroke-linejoin="round"/>
<path d="M5.83301 9.16666V5.83332C5.83301 4.72825 6.27199 3.66845 7.0534 2.88704C7.8348 2.10564 8.89461 1.66666 9.99967 1.66666C11.1047 1.66666 12.1646 2.10564 12.946 2.88704C13.7274 3.66845 14.1663 4.72825 14.1663 5.83332V9.16666" stroke-width="2" stroke-linecap="round" stroke-linejoin="round"/>
</svg>
