<svg width="14" height="15" viewBox="0 0 14 15" fill="none" xmlns="http://www.w3.org/2000/svg">
<path d="M14.0002 7.83741C14.0002 7.3976 13.9589 6.95738 13.8772 6.52999C13.8404 6.33653 13.6709 6.19672 13.4743 6.19672H7.02735C6.80064 6.19672 6.61719 6.38017 6.61719 6.60688V9.06789C6.61719 9.2946 6.80064 9.47805 7.02735 9.47805H10.3351C10.129 9.89528 9.84501 10.2573 9.51149 10.5619L11.8298 12.8801C13.1636 11.6093 14.0002 9.82095 14.0002 7.83741Z"/>
<path d="M7.00058 4.11862C7.8053 4.11862 8.57075 4.37418 9.21403 4.85804C9.37665 4.98021 9.60618 4.96539 9.75037 4.81998L11.5008 3.06955C11.5821 2.98822 11.6258 2.87647 11.6206 2.76151C11.6154 2.64655 11.5625 2.5392 11.4744 2.4651C10.2218 1.41529 8.63282 0.83728 7.00058 0.83728C4.59839 0.83728 2.47622 2.05832 1.22168 3.91222L3.62931 6.31985C4.2037 5.02602 5.49606 4.11862 7.00058 4.11862Z"/>
<path d="M7.00058 14.8377C8.56641 14.8377 10.0083 14.3127 11.1734 13.438L8.81163 11.0762C8.2718 11.3802 7.6548 11.5563 7.00058 11.5563C5.49606 11.5563 4.2037 10.6489 3.62931 9.3551L1.22168 11.7627C2.47622 13.6166 4.59839 14.8377 7.00058 14.8377Z" />
<path d="M3.34106 8.42824C3.30964 8.23467 3.28134 8.03973 3.28134 7.83746C3.28134 7.63519 3.30964 7.44026 3.34106 7.24668L0.767286 4.67291C0.280335 5.62395 0 6.69763 0 7.83746C0 8.97729 0.280336 10.051 0.767313 11.002L3.34106 8.42824Z" />
</svg>
