<svg width="15" height="15" viewBox="0 0 15 15" fill="none" xmlns="http://www.w3.org/2000/svg">
<path d="M14.9963 15V14.9994H15V9.49813C15 6.80689 14.4206 4.73376 11.2744 4.73376C9.7619 4.73376 8.74691 5.56376 8.33253 6.35064H8.28878V4.98501H5.30566V14.9994H8.41191V10.0406C8.41191 8.73501 8.65941 7.47251 10.2763 7.47251C11.8694 7.47251 11.8932 8.96251 11.8932 10.1244V15H14.9963Z"/>
<path d="M0.248047 4.9856H3.35804V14.9999H0.248047V4.9856Z"/>
<path d="M1.80125 0C0.806873 0 0 0.806873 0 1.80125C0 2.79562 0.806873 3.61937 1.80125 3.61937C2.79562 3.61937 3.60249 2.79562 3.60249 1.80125C3.60187 0.806873 2.79499 0 1.80125 0V0Z"/>
</svg>
