<svg width="13" height="12" viewBox="0 0 13 12" fill="none" xmlns="http://www.w3.org/2000/svg">
<path d="M6.82202 0.800049C3.50702 0.800049 0.822021 3.37114 0.822021 6.54215C0.822021 9.07965 2.54102 11.2315 4.92452 11.9901C5.22452 12.0442 5.33452 11.8665 5.33452 11.714C5.33452 11.5777 5.32952 11.2164 5.32702 10.7377C3.65802 11.0839 3.30602 9.96735 3.30602 9.96735C3.03302 9.30462 2.63852 9.12737 2.63852 9.12737C2.09502 8.77141 2.68052 8.77871 2.68052 8.77871C3.28302 8.81864 3.59952 9.37036 3.59952 9.37036C4.13452 10.2483 5.00402 9.99462 5.34702 9.84805C5.40102 9.47651 5.55552 9.22378 5.72702 9.08013C4.39452 8.93648 2.99402 8.44272 2.99402 6.24268C2.99402 5.61598 3.22652 5.10371 3.61152 4.70197C3.54402 4.55686 3.34152 3.97301 3.66402 3.1822C3.66402 3.1822 4.16652 3.02833 5.31402 3.77093C5.79402 3.64335 6.30402 3.58004 6.81402 3.57712C7.32402 3.58004 7.83402 3.64335 8.31402 3.77093C9.45402 3.02833 9.95652 3.1822 9.95652 3.1822C10.279 3.97301 10.0765 4.55686 10.0165 4.70197C10.399 5.10371 10.6315 5.61598 10.6315 6.24268C10.6315 8.44856 9.22902 8.93405 7.89402 9.07526C8.10402 9.24764 8.29902 9.59971 8.29902 10.1378C8.29902 10.9062 8.29152 11.5236 8.29152 11.7101C8.29152 11.8606 8.39652 12.0403 8.70402 11.9828C11.1045 11.229 12.822 9.07575 12.822 6.54215C12.822 3.37114 10.1355 0.800049 6.82202 0.800049Z"/>
</svg>
