<svg width="12" height="12" viewBox="0 0 12 12" fill="none" xmlns="http://www.w3.org/2000/svg">
<path d="M11.5859 11.2944V11.2939H11.5887V7.1517C11.5887 5.12531 11.1525 3.56433 8.7835 3.56433C7.64465 3.56433 6.8804 4.18929 6.56839 4.78177H6.53545V3.75351H4.28928V11.2939H6.62815V7.56018C6.62815 6.5771 6.81451 5.62649 8.03195 5.62649C9.23151 5.62649 9.24939 6.7484 9.24939 7.62324V11.2944H11.5859Z"/>
<path d="M0.480743 3.75403H2.82245V11.2944H0.480743V3.75403Z"/>
<path d="M1.65058 0C0.901855 0 0.294312 0.607544 0.294312 1.35627C0.294312 2.10499 0.901855 2.72524 1.65058 2.72524C2.3993 2.72524 3.00685 2.10499 3.00685 1.35627C3.00638 0.607544 2.39883 0 1.65058 0V0Z"/>
</svg>
