<svg width="12" height="12" viewBox="0 0 12 12" fill="none" xmlns="http://www.w3.org/2000/svg">
<path d="M11.4245 6.59005C11.4209 6.60996 11.4147 6.57209 11.4245 6.59005C11.4824 6.27191 11.5129 5.94637 11.5129 5.6209C11.5129 4.8992 11.3727 4.19912 11.0957 3.53996C10.8285 2.90332 10.4462 2.33157 9.95878 1.84067C9.47213 1.3497 8.90443 0.964457 8.27304 0.695167C7.6193 0.41634 6.92463 0.275026 6.20864 0.275026C5.87117 0.275026 5.53316 0.306951 5.2042 0.370663C5.20351 0.370802 5.20173 0.371009 5.20173 0.371009C4.75039 0.129152 4.24289 0 3.72908 0C2.89029 0 2.10169 0.329202 1.50863 0.927142C0.915635 1.52487 0.588867 2.31976 0.588867 3.16508C0.588867 3.70318 0.726266 4.23215 0.983923 4.69949C0.931678 5.00237 0.904048 5.31187 0.904048 5.6209C0.904048 6.34274 1.04426 7.04274 1.32125 7.70198C1.58809 8.33889 1.97053 8.91022 2.45753 9.40119C2.94494 9.8921 3.51181 10.278 4.14389 10.5466C4.79769 10.8259 5.49257 10.9673 6.20857 10.9673C6.52025 10.9673 6.83262 10.9386 7.13758 10.8841C7.60737 11.152 8.13928 11.2944 8.68243 11.2944C9.52101 11.2944 10.3093 10.9658 10.9024 10.3676C11.4956 9.7702 11.8221 8.97518 11.8221 8.12986C11.8221 7.58996 11.684 7.05926 11.4245 6.59005ZM6.22975 8.89502C4.34532 8.89502 3.50221 7.96132 3.50221 7.26145C3.50221 6.9026 3.76515 6.65093 4.1275 6.65093C4.934 6.65093 4.72516 7.818 6.22975 7.818C7.00005 7.818 7.42534 7.39647 7.42534 6.96514C7.42534 6.70566 7.29836 6.41806 6.79114 6.29209L5.11507 5.87036C3.76515 5.5292 3.52024 4.79368 3.52024 4.10231C3.52024 2.66686 4.86125 2.12793 6.12053 2.12793C7.2806 2.12793 8.64808 2.7741 8.64808 3.63525C8.64808 4.00426 8.33105 4.21882 7.96883 4.21882C7.2806 4.21882 7.40717 3.25871 6.02084 3.25871C5.33296 3.25871 4.95189 3.57271 4.95189 4.02195C4.95189 4.47042 5.49525 4.61367 5.96695 4.72195L7.20759 4.99953C8.56656 5.30469 8.91108 6.10434 8.91108 6.85755C8.91122 8.02399 8.02279 8.89502 6.22975 8.89502Z" />
</svg>
