<svg width="12" height="11" viewBox="0 0 12 11" fill="none" xmlns="http://www.w3.org/2000/svg">
<path d="M0.199492 5.51525L2.80195 6.48657L3.80926 9.72607C3.87371 9.93355 4.12742 10.0102 4.29582 9.87255L5.74647 8.68996C5.89853 8.56606 6.11512 8.55988 6.27403 8.67524L8.89049 10.5748C9.07064 10.7058 9.32586 10.6071 9.37103 10.3894L11.2877 1.16973C11.337 0.931947 11.1034 0.73358 10.877 0.821149L0.196443 4.94138C-0.0671307 5.04303 -0.0648342 5.4162 0.199492 5.51525ZM3.64692 5.96951L8.73309 2.83694C8.8245 2.7808 8.91854 2.9044 8.84004 2.97721L4.64248 6.87905C4.49494 7.01639 4.39977 7.20019 4.37281 7.39968L4.22982 8.45932C4.21089 8.60081 4.01214 8.61485 3.9731 8.47792L3.42318 6.54564C3.36019 6.32525 3.45198 6.08984 3.64692 5.96951Z"/>
</svg>
