<svg width="61" height="14" viewBox="0 0 61 14" fill="none" xmlns="http://www.w3.org/2000/svg">
<path d="M19.7642 0.00720215H19.757C15.9938 0.00720215 12.9487 3.05945 12.9487 6.81552C12.9487 10.5788 15.9938 13.631 19.757 13.631C23.5203 13.631 26.5725 10.5859 26.5725 6.8227C26.5725 3.05945 23.5275 0.00720215 19.7642 0.00720215ZM22.6441 9.70977C21.0426 11.3041 18.4571 11.2969 16.8628 9.70259C15.2756 8.10824 15.2756 5.5228 16.8628 3.92845C18.4571 2.32691 21.0426 2.32691 22.6441 3.92127L22.6513 3.92845C24.2528 5.5228 24.2457 8.11542 22.6441 9.70977Z"/>
<path d="M11.5842 10.945L10.9019 10.9091H4.76869L12.9487 2.72907L12.9128 2.0468C12.8841 0.947993 12.0007 0.0646359 10.9019 0.0359088L10.2197 0H0L0.0359088 0.682268C0.0861812 1.76672 0.955175 2.64289 2.0468 2.69316L2.72907 2.72907H8.8623L0.682268 10.9091L0.718177 11.5914C0.754086 12.683 1.63744 13.5664 2.72907 13.6023L3.41134 13.6382H13.631L13.5951 12.9559C13.5017 11.8284 12.7045 11.0097 11.5842 10.945Z"/>
<path d="M55.1991 0.00716908C53.6335 0.00716908 52.1469 0.682256 51.1127 1.85288C49.3029 -0.201102 46.2435 -0.596099 43.974 0.940799C43.4498 0.344712 42.2576 0.00716908 41.5753 0.00716908V13.6382L42.2576 13.6023C43.3923 13.5304 44.2254 12.7261 44.2685 11.5914L44.3044 10.9091V6.1404L44.3403 5.45813C44.3403 4.98413 44.4624 4.51732 44.6778 4.0936C45.4247 2.7937 47.0909 2.34843 48.398 3.10251C48.8074 3.33951 49.1521 3.68423 49.3891 4.0936H49.3819C49.6045 4.51732 49.7194 4.98413 49.7194 5.45813L49.7554 6.1404V10.9091L49.7913 11.5914C49.8344 12.683 50.7033 13.5592 51.795 13.6023L52.4772 13.6382V6.1404L52.5132 5.45813C52.5132 4.97695 52.6281 4.51014 52.8507 4.08641C53.6048 2.78651 55.2781 2.34124 56.578 3.10251C56.9874 3.33951 57.3321 3.68423 57.5691 4.0936C57.7846 4.51732 57.8995 4.98413 57.8995 5.45813L57.9354 6.1404V10.9091L57.9713 11.5914C58.0072 12.683 58.8834 13.5592 59.975 13.6023L60.6573 13.6382V5.45813C60.6501 2.44897 58.2083 0.00716908 55.1991 0.00716908Z"/>
<path d="M38.8894 2.00373C37.611 0.725379 35.8802 0.00720215 34.0704 0.00720215C32.2606 0.00720215 30.5298 0.725379 29.2514 2.00373C26.5942 4.66817 26.5942 8.98441 29.2586 11.6417C31.9231 14.2989 36.2393 14.2989 38.8966 11.6345C41.561 8.97723 41.5538 4.66099 38.8894 2.00373ZM36.9575 9.70977C35.3559 11.3041 32.7705 11.2969 31.1762 9.70259C29.589 8.10824 29.589 5.5228 31.1762 3.92845C32.7705 2.32691 35.3559 2.32691 36.9575 3.92127L36.9647 3.92845C38.5662 5.5228 38.559 8.11542 36.9575 9.70977Z"/>
</svg>
