<svg width="21" height="18" viewBox="0 0 21 18" fill="none" xmlns="http://www.w3.org/2000/svg">
<path d="M8.80577 1.85092L1.23942 14.3485C1.08342 14.6158 1.00088 14.9188 1.00001 15.2275C0.999134 15.5361 1.07996 15.8396 1.23445 16.1078C1.38893 16.3759 1.61169 16.5994 1.88056 16.7559C2.14943 16.9125 2.45504 16.9966 2.76699 17H17.8997C18.2116 16.9966 18.5172 16.9125 18.7861 16.7559C19.055 16.5994 19.2777 16.3759 19.4322 16.1078C19.5867 15.8396 19.6675 15.5361 19.6667 15.2275C19.6658 14.9188 19.5832 14.6158 19.4272 14.3485L11.8609 1.85092C11.7016 1.59116 11.4774 1.3764 11.2098 1.22735C10.9423 1.0783 10.6404 1 10.3333 1C10.0263 1 9.72439 1.0783 9.45682 1.22735C9.18925 1.3764 8.96502 1.59116 8.80577 1.85092V1.85092Z" stroke="#FC3665" stroke-width="2" stroke-linecap="round" stroke-linejoin="round"/>
<path d="M10.3335 6.39397V9.92934" stroke="#FC3665" stroke-width="2" stroke-linecap="round" stroke-linejoin="round"/>
<path d="M10.3335 13.4647H10.3423" stroke="#FC3665" stroke-width="2" stroke-linecap="round" stroke-linejoin="round"/>
</svg>
