<svg width="22" height="24" viewBox="0 0 22 24" fill="none" xmlns="http://www.w3.org/2000/svg">
<path d="M16 9C16 7.4087 15.3679 5.88258 14.2426 4.75736C13.1174 3.63214 11.5913 3 10 3C8.4087 3 6.88258 3.63214 5.75736 4.75736C4.63214 5.88258 4 7.4087 4 9C4 16 1 18 1 18H19C19 18 16 16 16 9Z" stroke="white" stroke-width="2" stroke-linecap="round" stroke-linejoin="round"/>
<path d="M11.73 22C11.5542 22.3031 11.3019 22.5547 10.9982 22.7295C10.6946 22.9044 10.3504 22.9965 10 22.9965C9.64964 22.9965 9.30541 22.9044 9.00179 22.7295C8.69818 22.5547 8.44583 22.3031 8.27002 22" stroke="white" stroke-width="2" stroke-linecap="round" stroke-linejoin="round"/>
<circle cx="16.5" cy="5.5" r="4.5" fill="#FC3665" stroke="#141F31" stroke-width="2"/>
</svg>
