<svg width="16" height="16" viewBox="0 0 16 16" fill="none" xmlns="http://www.w3.org/2000/svg">
<path d="M15.3501 9.33569C15.345 9.36388 15.3362 9.31024 15.3501 9.33569C15.4322 8.88499 15.4753 8.42382 15.4753 7.96275C15.4753 6.94036 15.2768 5.94862 14.8844 5.01482C14.5058 4.11294 13.9642 3.30298 13.2737 2.60756C12.5843 1.91203 11.7801 1.36628 10.8857 0.984796C9.95955 0.589801 8.97545 0.389611 7.96115 0.389611C7.48309 0.389611 7.00425 0.434837 6.53823 0.525094C6.53726 0.52529 6.53474 0.525584 6.53474 0.525584C5.89535 0.182961 5.17641 0 4.44854 0C3.26028 0 2.14312 0.466359 1.30297 1.31342C0.46291 2.16019 0 3.28624 0 4.48376C0 5.24605 0.194644 5.99541 0.559649 6.65746C0.485637 7.08652 0.446495 7.52498 0.446495 7.96275C0.446495 8.98533 0.645121 9.97698 1.03752 10.9109C1.41554 11.8131 1.95731 12.6225 2.64721 13.318C3.33769 14.0135 4.14074 14.5601 5.03616 14.9406C5.96237 15.3364 6.94675 15.5367 7.96105 15.5367C8.4026 15.5367 8.84511 15.496 9.27713 15.4188C9.94265 15.7983 10.6962 16 11.4656 16C12.6536 16 13.7703 15.5345 14.6105 14.6871C15.4508 13.8408 15.9134 12.7145 15.9134 11.517C15.9134 10.7522 15.7178 10.0004 15.3501 9.33569ZM7.99107 12.601C5.32152 12.601 4.12714 11.2783 4.12714 10.2868C4.12714 9.77846 4.49963 9.42193 5.01294 9.42193C6.15545 9.42193 5.8596 11.0752 7.99107 11.0752C9.08229 11.0752 9.68478 10.4781 9.68478 9.86705C9.68478 9.49946 9.5049 9.09204 8.78635 8.91358L6.41197 8.31614C4.49963 7.83285 4.15269 6.79088 4.15269 5.81147C4.15269 3.77796 6.0524 3.01449 7.83634 3.01449C9.47974 3.01449 11.4169 3.92988 11.4169 5.14982C11.4169 5.67256 10.9678 5.97652 10.4547 5.97652C9.47974 5.97652 9.65904 4.6164 7.69512 4.6164C6.72064 4.6164 6.18081 5.06123 6.18081 5.69762C6.18081 6.33294 6.95054 6.53587 7.61878 6.68927L9.3763 7.0825C11.3015 7.5148 11.7895 8.64761 11.7895 9.71463C11.7897 11.3671 10.5311 12.601 7.99107 12.601Z" fill="#9090AB"/>
</svg>
